<svg width="20" height="21" viewBox="0 0 20 21" fill="none" xmlns="http://www.w3.org/2000/svg">
<g clip-path="url(#clip0_331_457)">
<path d="M5 0.5C4.3125 0.5 3.75 1.0625 3.75 1.75V19.25C3.75 19.9375 4.3125 20.5 5 20.5H17.5C18.1875 20.5 18.75 19.9375 18.75 19.25V5.5L13.75 0.5H5Z" fill="#E2E5E7"/>
<path d="M15 5.5H18.75L13.75 0.5V4.25C13.75 4.9375 14.3125 5.5 15 5.5Z" fill="#B0B7BD"/>
<path d="M18.75 9.25L15 5.5H18.75V9.25Z" fill="#CAD1D8"/>
<path d="M16.25 16.75C16.25 17.0938 15.9688 17.375 15.625 17.375H1.875C1.53125 17.375 1.25 17.0938 1.25 16.75V10.5C1.25 10.1562 1.53125 9.875 1.875 9.875H15.625C15.9688 9.875 16.25 10.1562 16.25 10.5V16.75Z" fill="#F15642"/>
<path d="M3.97461 12.3419C3.97461 12.1769 4.10461 11.9969 4.31398 11.9969H5.46836C6.11836 11.9969 6.70336 12.4319 6.70336 13.2656C6.70336 14.0556 6.11836 14.4956 5.46836 14.4956H4.63398V15.1556C4.63398 15.3756 4.49398 15.5 4.31398 15.5C4.14898 15.5 3.97461 15.3756 3.97461 15.1556V12.3419ZM4.63398 12.6262V13.8712H5.46836C5.80336 13.8712 6.06836 13.5756 6.06836 13.2656C6.06836 12.9162 5.80336 12.6262 5.46836 12.6262H4.63398Z" fill="white"/>
<path d="M7.68191 15.5C7.51691 15.5 7.33691 15.41 7.33691 15.1906V12.3519C7.33691 12.1725 7.51691 12.0419 7.68191 12.0419H8.82629C11.11 12.0419 11.06 15.5 8.87129 15.5H7.68191ZM7.99691 12.6519V14.8906H8.82629C10.1757 14.8906 10.2357 12.6519 8.82629 12.6519H7.99691Z" fill="white"/>
<path d="M11.8705 12.6919V13.4862H13.1449C13.3249 13.4862 13.5049 13.6662 13.5049 13.8406C13.5049 14.0056 13.3249 14.1406 13.1449 14.1406H11.8705V15.19C11.8705 15.365 11.7462 15.4994 11.5712 15.4994C11.3512 15.4994 11.2168 15.365 11.2168 15.19V12.3512C11.2168 12.1719 11.3518 12.0412 11.5712 12.0412H13.3255C13.5455 12.0412 13.6755 12.1719 13.6755 12.3512C13.6755 12.5112 13.5455 12.6912 13.3255 12.6912H11.8705V12.6919Z" fill="white"/>
<path d="M15.625 17.375H3.75V18H15.625C15.9688 18 16.25 17.7188 16.25 17.375V16.75C16.25 17.0938 15.9688 17.375 15.625 17.375Z" fill="#CAD1D8"/>
</g>
<defs>
<clipPath id="clip0_331_457">
<rect width="20" height="20" fill="white" transform="translate(0 0.5)"/>
</clipPath>
</defs>
</svg>
