<svg xmlns="http://www.w3.org/2000/svg" xmlns:xlink="http://www.w3.org/1999/xlink" version="1.1" width="1000" height="1000" viewBox="0 0 1000 1000" xml:space="preserve">
<desc>Created with Fabric.js 3.5.0</desc>
<defs>
</defs>
<rect x="0" y="0" width="100%" height="100%" fill="rgba(255,255,255,0)"/>
<g transform="matrix(0 2.3414 -3.4545 0 493.0683 826.198)" id="997590">
<path style="stroke: none; stroke-width: 1; stroke-dasharray: none; stroke-linecap: butt; stroke-dashoffset: 0; stroke-linejoin: miter; stroke-miterlimit: 4; is-custom-font: none; font-file-url: none; fill: rgb(183,192,199); fill-rule: nonzero; opacity: 1;" vector-effect="non-scaling-stroke" transform=" translate(-78.4998, -78.5)" d="M 78.5 0 C 52.9419 0 32.1166 35.2271 32.1166 78.5 C 32.1166 121.773 52.9419 157 78.5 157 C 104.058 157 124.883 121.773 124.883 78.5 C 124.883 35.2271 104.058 0 78.5 0 Z" stroke-linecap="round"/>
</g>
<g transform="matrix(51.8636 0 0 51.8636 493.0721 423.275)" id="271621">
<path style="stroke: none; stroke-width: 1; stroke-dasharray: none; stroke-linecap: butt; stroke-dashoffset: 0; stroke-linejoin: miter; stroke-miterlimit: 4; is-custom-font: none; font-file-url: none; fill: rgb(231,76,60); fill-rule: nonzero; opacity: 1;" vector-effect="non-scaling-stroke" transform=" translate(-5.9387, -8.1465)" d="M 5.93906 0.315247 C 8.93164 0.315247 11.3578 2.74142 11.3578 5.73478 C 11.3578 7.42423 9.07461 10.9531 7.35234 13.6656 C 6.7875 14.5555 6.28281 15.3574 5.93906 15.9777 C 5.60664 15.3785 5.1043 14.5742 4.5375 13.6719 C 2.82422 10.9457 0.519531 7.3215 0.519531 5.73478 C 0.519531 2.74142 2.9457 0.315247 5.93906 0.315247 Z M 8.36016 5.53048 C 8.36016 4.19611 7.27266 3.10822 5.93906 3.10822 C 4.60469 3.10822 3.51719 4.19611 3.51719 5.53048 C 3.51719 6.86408 4.60469 7.95158 5.93906 7.95158 C 7.27266 7.95158 8.36016 6.86408 8.36016 5.53048 Z" stroke-linecap="round"/>
</g>
</svg>