<svg width="89" height="21" viewBox="0 0 89 21" fill="none" xmlns="http://www.w3.org/2000/svg">
<path d="M6.672 16.288C5.664 16.288 4.712 16.048 3.816 15.568C2.936 15.072 2.224 14.36 1.68 13.432C1.136 12.488 0.864 11.36 0.864 10.048C0.864 8.72 1.136 7.592 1.68 6.664C2.224 5.736 2.936 5.032 3.816 4.552C4.712 4.056 5.664 3.808 6.672 3.808C7.68 3.808 8.624 4.056 9.504 4.552C10.384 5.032 11.096 5.736 11.64 6.664C12.184 7.592 12.456 8.72 12.456 10.048C12.456 11.36 12.184 12.488 11.64 13.432C11.096 14.36 10.384 15.072 9.504 15.568C8.624 16.048 7.68 16.288 6.672 16.288ZM6.672 13.432C7.392 13.432 7.936 13.128 8.304 12.52C8.672 11.896 8.856 11.072 8.856 10.048C8.856 9.008 8.672 8.184 8.304 7.576C7.936 6.968 7.392 6.664 6.672 6.664C5.936 6.664 5.384 6.968 5.016 7.576C4.664 8.184 4.488 9.008 4.488 10.048C4.488 11.072 4.664 11.896 5.016 12.52C5.384 13.128 5.936 13.432 6.672 13.432ZM19.9845 16.288C18.9765 16.288 18.0245 16.048 17.1285 15.568C16.2485 15.072 15.5365 14.36 14.9925 13.432C14.4485 12.488 14.1765 11.36 14.1765 10.048C14.1765 8.72 14.4485 7.592 14.9925 6.664C15.5365 5.736 16.2485 5.032 17.1285 4.552C18.0245 4.056 18.9765 3.808 19.9845 3.808C20.9925 3.808 21.9365 4.056 22.8165 4.552C23.6965 5.032 24.4085 5.736 24.9525 6.664C25.4965 7.592 25.7685 8.72 25.7685 10.048C25.7685 11.36 25.4965 12.488 24.9525 13.432C24.4085 14.36 23.6965 15.072 22.8165 15.568C21.9365 16.048 20.9925 16.288 19.9845 16.288ZM19.9845 13.432C20.7045 13.432 21.2485 13.128 21.6165 12.52C21.9845 11.896 22.1685 11.072 22.1685 10.048C22.1685 9.008 21.9845 8.184 21.6165 7.576C21.2485 6.968 20.7045 6.664 19.9845 6.664C19.2485 6.664 18.6965 6.968 18.3285 7.576C17.9765 8.184 17.8005 9.008 17.8005 10.048C17.8005 11.072 17.9765 11.896 18.3285 12.52C18.6965 13.128 19.2485 13.432 19.9845 13.432ZM32.1362 16.288C30.6642 16.288 29.6082 15.864 28.9682 15.016C28.3442 14.168 28.0322 13.056 28.0322 11.68V6.856H26.4002V4.24L28.2242 4.096L28.6322 0.927999H31.5602V4.096H34.4162V6.856H31.5602V11.632C31.5602 12.304 31.6962 12.792 31.9682 13.096C32.2562 13.384 32.6322 13.528 33.0962 13.528C33.2882 13.528 33.4802 13.504 33.6722 13.456C33.8802 13.408 34.0642 13.352 34.2242 13.288L34.7762 15.856C34.4722 15.952 34.0962 16.048 33.6482 16.144C33.2162 16.24 32.7122 16.288 32.1362 16.288ZM40.0093 16.288C39.2253 16.288 38.4173 16.136 37.5853 15.832C36.7693 15.528 36.0573 15.128 35.4493 14.632L37.0333 12.424C37.5773 12.824 38.0973 13.136 38.5933 13.36C39.1053 13.568 39.6093 13.672 40.1053 13.672C40.6333 13.672 41.0173 13.584 41.2573 13.408C41.4973 13.216 41.6173 12.968 41.6173 12.664C41.6173 12.392 41.4973 12.168 41.2573 11.992C41.0333 11.816 40.7373 11.656 40.3693 11.512C40.0013 11.352 39.6093 11.192 39.1933 11.032C38.7133 10.84 38.2333 10.6 37.7533 10.312C37.2893 10.024 36.8973 9.656 36.5773 9.208C36.2573 8.744 36.0973 8.184 36.0973 7.528C36.0973 6.424 36.5133 5.528 37.3453 4.84C38.1933 4.152 39.2973 3.808 40.6573 3.808C41.5693 3.808 42.3693 3.968 43.0573 4.288C43.7613 4.592 44.3613 4.936 44.8573 5.32L43.2733 7.432C42.8573 7.112 42.4413 6.864 42.0253 6.688C41.6093 6.512 41.1933 6.424 40.7773 6.424C39.8653 6.424 39.4093 6.736 39.4093 7.36C39.4093 7.744 39.6333 8.04 40.0813 8.248C40.5453 8.44 41.0813 8.648 41.6893 8.872C42.2013 9.048 42.6973 9.28 43.1773 9.568C43.6733 9.84 44.0813 10.208 44.4013 10.672C44.7373 11.12 44.9053 11.712 44.9053 12.448C44.9053 13.52 44.4893 14.432 43.6573 15.184C42.8253 15.92 41.6093 16.288 40.0093 16.288ZM51.2612 16.288C49.7892 16.288 48.7332 15.864 48.0932 15.016C47.4692 14.168 47.1572 13.056 47.1572 11.68V6.856H45.5252V4.24L47.3492 4.096L47.7572 0.927999H50.6852V4.096H53.5412V6.856H50.6852V11.632C50.6852 12.304 50.8212 12.792 51.0932 13.096C51.3812 13.384 51.7572 13.528 52.2212 13.528C52.4132 13.528 52.6052 13.504 52.7972 13.456C53.0052 13.408 53.1892 13.352 53.3492 13.288L53.9012 15.856C53.5972 15.952 53.2212 16.048 52.7732 16.144C52.3412 16.24 51.8372 16.288 51.2612 16.288ZM55.8647 16V4.096H58.7447L58.9847 6.184H59.0807C59.5127 5.384 60.0327 4.792 60.6407 4.408C61.2487 4.008 61.8567 3.808 62.4647 3.808C62.8007 3.808 63.0807 3.832 63.3047 3.88C63.5287 3.912 63.7207 3.968 63.8807 4.048L63.3047 7.096C63.0967 7.032 62.8887 6.984 62.6807 6.952C62.4887 6.92 62.2647 6.904 62.0087 6.904C61.5607 6.904 61.0887 7.072 60.5927 7.408C60.1127 7.728 59.7127 8.288 59.3927 9.088V16H55.8647ZM67.7475 16.288C66.6595 16.288 65.7955 15.944 65.1555 15.256C64.5155 14.552 64.1955 13.696 64.1955 12.688C64.1955 11.44 64.7235 10.464 65.7795 9.76C66.8355 9.056 68.5395 8.584 70.8915 8.344C70.8595 7.816 70.6995 7.4 70.4115 7.096C70.1395 6.776 69.6755 6.616 69.0195 6.616C68.5235 6.616 68.0195 6.712 67.5075 6.904C66.9955 7.096 66.4515 7.36 65.8755 7.696L64.6035 5.368C65.3555 4.904 66.1555 4.528 67.0035 4.24C67.8675 3.952 68.7635 3.808 69.6915 3.808C71.2115 3.808 72.3795 4.248 73.1955 5.128C74.0115 6.008 74.4195 7.36 74.4195 9.184V16H71.5395L71.2995 14.776H71.2035C70.7075 15.224 70.1715 15.592 69.5955 15.88C69.0355 16.152 68.4195 16.288 67.7475 16.288ZM68.9475 13.552C69.3475 13.552 69.6915 13.464 69.9795 13.288C70.2835 13.096 70.5875 12.848 70.8915 12.544V10.456C69.6435 10.616 68.7795 10.872 68.2995 11.224C67.8195 11.56 67.5795 11.96 67.5795 12.424C67.5795 12.808 67.6995 13.096 67.9395 13.288C68.1955 13.464 68.5315 13.552 68.9475 13.552ZM77.4038 20.416V4.096H80.2838L80.5238 5.272H80.6198C81.0838 4.856 81.6038 4.512 82.1797 4.24C82.7718 3.952 83.3798 3.808 84.0038 3.808C85.4438 3.808 86.5798 4.36 87.4118 5.464C88.2438 6.552 88.6598 8.016 88.6598 9.856C88.6598 11.216 88.4198 12.376 87.9398 13.336C87.4598 14.296 86.8358 15.032 86.0678 15.544C85.3158 16.04 84.5078 16.288 83.6438 16.288C83.1318 16.288 82.6358 16.184 82.1558 15.976C81.6758 15.752 81.2278 15.44 80.8118 15.04L80.9318 16.936V20.416H77.4038ZM82.8278 13.408C83.4358 13.408 83.9558 13.128 84.3878 12.568C84.8198 12.008 85.0358 11.12 85.0358 9.904C85.0358 7.76 84.3478 6.688 82.9718 6.688C82.2838 6.688 81.6038 7.048 80.9318 7.768V12.64C81.2518 12.928 81.5718 13.128 81.8918 13.24C82.2118 13.352 82.5238 13.408 82.8278 13.408Z" fill="white"/>
</svg>
