<svg width="12" height="16" viewBox="0 0 12 16" fill="none" xmlns="http://www.w3.org/2000/svg">
<path d="M5.93906 0.315247C8.93164 0.315247 11.3578 2.74142 11.3578 5.73478C11.3578 7.42423 9.07461 10.9531 7.35234 13.6656C6.7875 14.5555 6.28281 15.3574 5.93906 15.9777C5.60664 15.3785 5.1043 14.5742 4.5375 13.6719C2.82422 10.9457 0.519531 7.3215 0.519531 5.73478C0.519531 2.74142 2.9457 0.315247 5.93906 0.315247ZM8.36016 5.53048C8.36016 4.19611 7.27266 3.10822 5.93906 3.10822C4.60469 3.10822 3.51719 4.19611 3.51719 5.53048C3.51719 6.86408 4.60469 7.95158 5.93906 7.95158C7.27266 7.95158 8.36016 6.86408 8.36016 5.53048Z" fill="#E74C3C"/>
</svg>
